<?xml version="1.0" encoding="utf-8"?>
<!-- Generator: Adobe Illustrator 24.2.3, SVG Export Plug-In . SVG Version: 6.00 Build 0)  -->
<svg version="1.1" id="Capa_1" xmlns="http://www.w3.org/2000/svg" xmlns:xlink="http://www.w3.org/1999/xlink" x="0px" y="0px"
	 viewBox="0 0 1929.7 1800.8" style="enable-background:new 0 0 1929.7 1800.8;" xml:space="preserve">
<style type="text/css">
	.st0{fill:#F8F9FB;}
	.st1{opacity:0.11;fill:#52575D;enable-background:new    ;}
	.st2{fill:#05C089;}
	.st3{fill:#3F3D56;}
	.st4{fill:url(#Trazado_1775_1_);}
	.st5{fill:#D3899B;}
	.st6{fill:#EEC5CD;}
	.st7{opacity:0.1;enable-background:new    ;}
	.st8{fill:#3F2B3B;}
	.st9{fill:none;stroke:#3F2B3B;stroke-miterlimit:10;}
	.st10{fill:#F1D2D7;}
	.st11{fill:#FFBEC7;}
	.st12{fill:#493545;}
	.st13{fill:#BD577A;}
	.st14{fill:#E7AEB8;}
	.st15{fill:#E8E8F0;}
</style>
<g id="Grupo_10652" transform="translate(15141.572 24447.209)">
	<g id="Banner_desing" transform="translate(-15141.568 -24447.207)">
		<path id="Trazado_1955" class="st0" d="M789.2,393.5c-226,74.1-991.4,301.6-458.9,922.2c542.1,523.3,784,161.2,1118.6-69.3
			c644.8-408.2,288.3-534.5,55.2-711.6C1214.8,341,914.7,350.5,789.2,393.5z"/>
	</g>
	<g id="undraw_friends_r511" transform="translate(-14510.371 -23829.324)">
		<path id="Sombra" class="st1" d="M309.9,593.2c161.2,0,291.9,14.6,291.9,32.6s-130.7,32.6-291.9,32.6S18,643.9,18,625.9
			S148.7,593.2,309.9,593.2z"/>
		<g id="Arbol_Verde_" transform="translate(59.23 84)">
			<ellipse id="Elipse_323" class="st2" cx="100.9" cy="205.9" rx="100.9" ry="205.9"/>
			<path id="Trazado_1611" class="st3" d="M99.7,208c5-89.6,15.2-150.2,15.3-150.8l-1.6-0.3c-0.1,0.6-10.3,61.2-15.3,150.9
				c-4.7,82.8-5.8,208,15.3,334.5l1.6-0.3C93.9,415.8,95,290.7,99.7,208z"/>
			
				<rect id="Rect치ngulo_1145" x="94.3" y="188.7" transform="matrix(0.8817 -0.4719 0.4719 0.8817 -72.1581 91.3224)" class="st3" width="103.5" height="1.6"/>
			
				<rect id="Rect치ngulo_1146" x="48.9" y="162.3" transform="matrix(0.4717 -0.8818 0.8818 0.4717 -162.4397 156.8738)" class="st3" width="1.6" height="103.5"/>
		</g>
		<g id="Mujer_Perro" transform="translate(988.381 -553.656)">
			<g id="Perro" transform="translate(-1495 387)">
				
					<linearGradient id="Trazado_1775_1_" gradientUnits="userSpaceOnUse" x1="536.5333" y1="872.3152" x2="536.5333" y2="873.3152" gradientTransform="matrix(104.4703 0 0 -131.0838 -54977.7109 115139.2813)">
					<stop  offset="0" style="stop-color:#808080;stop-opacity:0.251"/>
					<stop  offset="0.54" style="stop-color:#808080;stop-opacity:0.122"/>
					<stop  offset="1" style="stop-color:#808080;stop-opacity:0.102"/>
				</linearGradient>
				<path id="Trazado_1775" class="st4" d="M1124.9,688.5c0.2-1.9,0.5-3.8,0.9-5.7c1.5-8.2-0.8-16.1-2-19.3l0,0
					c-0.3-1-0.6-1.6-0.6-1.6c-6.1-1.7-30,16.9-38.7,23.9c-3,0-6.3,0.1-9.9,0.4c-1.6,0.1-3.1,0.2-4.7,0.1h-5.7
					c-8.1-6.5-33.1-26.1-39.3-24.4c0,0-0.3,0.6-0.6,1.6l0,0c-1.2,3.2-3.5,11.1-2,19.3c0.3,1.9,0.7,3.8,0.9,5.7
					c0.5,4.2,2.2,12.2,8.6,17.6c1.3,9.9,6.5,22.9,10.4,30.8c0.3,1.5,0.7,3,1.3,4.4c-1.6,6.2-3.5,14.4-3,17.1c0,0-8.5-2-9.3,8.1v0.3
					c-3.1,1.4-6.9,4.6-2.6,11.3c0.5,0.8,1.3,1.5,2.2,1.8c0.8,0.3,1.5,0.3,1.4-0.8l5.3,6c0,0,9.6,1.1,9.7-4.5l0.6,0.1
					c1.3,0.2,2.6,0.3,4,0.5l0.7,2.2c0,0-7.2-0.2-5.2,4.3c0,0,1.8,1.7,2.4,1.1c0,0-0.9,2.9,2.8,2.9c0,0,4,2.1,5.6,0.6
					c1.6-1.5,4.8-3.8,5.1-4.7c0.1-0.3,0.1-2.5,0.1-5.6h0.6c8,0.2,16.5-0.1,24.3-0.5h0.6c0,3.4,0,5.9,0.1,6.1
					c0.3,0.9,3.6,3.2,5.1,4.7c1.6,1.5,5.6-0.6,5.6-0.6c3.7,0,2.8-2.9,2.8-2.9c0.6,0.6,2.4-1.1,2.4-1.1c2-4.4-5.2-4.3-5.2-4.3
					l0.8-2.8l4-0.3l0.6-0.1c-0.4,6,9.7,4.9,9.7,4.9l5.3-6c-0.1,1.1,0.7,1.1,1.4,0.8c0.9-0.3,1.7-1,2.2-1.8
					c6.5-10.1-5.5-12.3-5.5-12.3c-0.4-0.1-0.7-0.2-1.1-0.2c0-0.2,0-0.4,0-0.5l0,0c0.1-1.3,0.2-2.7,0.1-4c-0.5-1.8-3.4-4.7-7.1-5.2
					c-2.4-0.3-2.5-11.5-2.2-19.3c0.3-1.5,0.4-2.9,0.4-4.4c0-2.4-0.3-4.8-1-7.1c4.8-8.1,8.6-16.5,9-19.1
					C1122.7,700.7,1124.5,692.7,1124.9,688.5z"/>
				<path id="Trazado_1776" class="st5" d="M1115.7,765.7L1115.7,765.7c-0.4,5.3-1.4,13.7-1.4,13.7s-4.2,0.5-10.8,1.1l-4.4,0.4
					c-3.4,0.3-7.2,0.5-11.3,0.8c-7.5,0.4-15.7,0.7-23.4,0.5c-3.9-0.1-7.6-0.3-11.1-0.6c-1.6-0.2-3-0.3-4.5-0.5
					c-8.9-1.3-15.2-3.8-15.8-8.3c-0.3-1.9-0.3-3.8-0.2-5.7c0.8-10,9-8,9-8c-0.5-2.8,1.5-11.3,3-17.5c1-3.9,1.9-6.9,1.9-6.9l57.2-3.8
					h0.2c1.6,0,2.8,1.3,2.8,2.8c0,0,0,0.1,0,0.1c-0.3,6.9-0.8,22.6,2,22.9c3.6,0.5,6.5,3.3,6.9,5.1
					C1115.9,763,1115.9,764.4,1115.7,765.7z"/>
				<path id="Trazado_1777" class="st5" d="M1067.1,690.3c0,0-21.6,26-32,18.8c-0.3-0.2-0.5-0.3-0.7-0.5c-7-5.3-8.8-13.8-9.3-18.2
					c-0.2-1.9-0.5-3.7-0.8-5.6c-1.5-8.1,0.8-15.8,1.9-19l0,0c0.3-1,0.6-1.5,0.6-1.5C1033.9,662.4,1067.1,690.3,1067.1,690.3z"/>
				<path id="Trazado_1778" class="st6" d="M1055.6,692.7c0,0-6.8,4.8-16.4,12.6c-1.5,1.2-3.1,2.3-4.7,3.3c-7-5.3-8.8-13.8-9.3-18.2
					c-0.2-1.9-0.5-3.7-0.8-5.6c-1.5-8.1,0.8-15.8,1.9-19l0,0C1039.6,666.8,1055.6,692.7,1055.6,692.7z"/>
				<path id="Trazado_1779" class="st7" d="M1048.1,690.2c0,0-3.6,2.6-8.8,6.7c-0.8,0.7-1.6,1.3-2.5,1.8c-3.7-2.8-4.7-7.4-5-9.7
					c-0.1-1-0.3-2-0.4-3c-0.5-3.4-0.2-6.9,1-10.1l0,0C1039.6,676.3,1048.1,690.2,1048.1,690.2z"/>
				<path id="Trazado_1780" class="st5" d="M1081.1,690.3c0,0,21.6,26,32,18.8l0.7-0.5c7-5.3,8.8-13.8,9.3-18.2
					c0.2-1.9,0.5-3.7,0.8-5.6c1.4-8.1-0.8-15.8-1.9-19l0,0c-0.2-0.5-0.4-1-0.6-1.5C1114.3,662.4,1081.1,690.3,1081.1,690.3z"/>
				<path id="Trazado_1781" class="st6" d="M1092.7,692.7c0,0,6.8,4.8,16.4,12.6c1.5,1.2,3.1,2.3,4.7,3.3c7-5.3,8.8-13.8,9.3-18.2
					c0.2-1.9,0.5-3.7,0.8-5.6c1.4-8.1-0.8-15.8-1.9-19l0,0C1108.6,666.8,1092.7,692.7,1092.7,692.7z"/>
				<path id="Trazado_1782" class="st7" d="M1100.1,690.2c0,0,3.6,2.5,8.7,6.7c0.8,0.6,1.6,1.2,2.5,1.7c3.7-2.8,4.7-7.3,4.9-9.6
					c0.1-1,0.3-2,0.4-3c0.5-3.4,0.2-6.8-1-10.1l0,0C1108.6,676.4,1100.1,690.2,1100.1,690.2z"/>
				<path id="Trazado_1783" class="st7" d="M1104,730.8c-2.7,4.3-5.6,8.2-8.3,10.5c-8.6,7.6-45.6,4.6-48,4.2c-0.5-0.1-1.6-1.6-2.9-4
					c1-3.9,1.9-6.9,1.9-6.9L1104,730.8z"/>
				<path id="Trazado_1784" class="st5" d="M1074.7,688.2c-1.5,0.1-3,0.1-4.5,0.1c-7.7-0.1-33.7,0.2-36.6,10.7
					c-3.4,12.3,11.8,45.5,14.2,45.9s39.4,3.4,48-4.2s19.8-31.4,19.2-33.6C1114.9,707.1,1125.6,684.6,1074.7,688.2z"/>
				<path id="Trazado_1785" class="st7" d="M1073.8,708.2c0,0-19-2.9-28,15.8c-3.6,7.4-3,16.2,1.7,23c3,4.2,7.3,7.3,13.4,4.8
					C1074.4,746.3,1073.8,708.2,1073.8,708.2z"/>
				<path id="Trazado_1786" class="st7" d="M1073.3,707c0,0-19-2.9-28,15.8c-3.6,7.4-3,16.2,1.7,23c3,4.2,7.3,7.3,13.4,4.8
					C1073.8,745.1,1073.3,707,1073.3,707z"/>
				<path id="Trazado_1787" class="st6" d="M1073.3,707.6c0,0-19-2.9-28,15.8c-3.6,7.4-3,16.2,1.7,23c3,4.2,7.3,7.3,13.4,4.8
					C1073.8,745.7,1073.3,707.6,1073.3,707.6z"/>
				<path id="Trazado_1788" class="st8" d="M1052.7,724c0,0-2.6,2.4-1.6,3S1052.7,724,1052.7,724z"/>
				<path id="Trazado_1789" class="st8" d="M1055.6,727.1c0,0-1.4,3.1-0.4,3.5s1.6-2.3,1.6-2.3L1055.6,727.1z"/>
				<path id="Trazado_1790" class="st8" d="M1049.2,731.8c0,0-1.4,3.7,0,3.7S1049.2,731.8,1049.2,731.8z"/>
				<path id="Trazado_1791" class="st9" d="M1047.6,741.7c0,0,2.8,7.1,10,6.6"/>
				<path id="Trazado_1792" class="st9" d="M1054,743.8c0,0,2.9,2.8,6,0.8"/>
				<path id="Trazado_1793" class="st7" d="M1076.3,708.2c0,0,19-2.9,28,15.8c3.6,7.4,3,16.2-1.7,23c-3,4.2-7.3,7.3-13.4,4.8
					C1075.7,746.3,1076.3,708.2,1076.3,708.2z"/>
				<path id="Trazado_1794" class="st7" d="M1076.8,707c0,0,19-2.9,28,15.8c3.6,7.4,3,16.2-1.7,23c-3,4.2-7.3,7.3-13.4,4.8
					C1076.3,745.1,1076.8,707,1076.8,707z"/>
				<path id="Trazado_1795" class="st6" d="M1076.8,707.6c0,0,19-2.9,28,15.8c3.6,7.4,3,16.2-1.7,23c-3,4.2-7.3,7.3-13.4,4.8
					C1076.3,745.7,1076.8,707.6,1076.8,707.6z"/>
				<path id="Trazado_1796" class="st8" d="M1097.4,724c0,0,2.6,2.4,1.6,3S1097.4,724,1097.4,724z"/>
				<path id="Trazado_1797" class="st8" d="M1094.6,727.1c0,0,1.4,3.1,0.4,3.5s-1.6-2.3-1.6-2.3L1094.6,727.1z"/>
				<path id="Trazado_1798" class="st8" d="M1100.9,731.8c0,0,1.4,3.7,0,3.7S1100.9,731.8,1100.9,731.8z"/>
				<path id="Trazado_1799" class="st9" d="M1102.6,741.7c0,0-2.8,7.1-10,6.6"/>
				<path id="Trazado_1800" class="st9" d="M1096.1,743.8c0,0-2.9,2.8-6,0.8"/>
				<path id="Trazado_1801" class="st8" d="M1066,761.9c0.5-0.1,10-4.2,19.8,0H1066z"/>
				<path id="Trazado_1802" class="st7" d="M1048.8,781c-8.9-1.3-15.2-3.8-15.8-8.3c-0.3-1.9-0.3-3.8-0.2-5.7c1.1-0.6,2.2-1,3.4-1.2
					c1.6-0.5,3.6-0.2,7.8,1c4.2,1.2,3.9,6.2,4.8,12.6C1048.9,779.9,1048.9,780.4,1048.8,781L1048.8,781z"/>
				<path id="Trazado_1803" class="st5" d="M1035.6,766.4c0,0-11.5,2.1-5.3,12.1c0.5,0.8,1.2,1.4,2.1,1.8c0.7,0.3,1.4,0.3,1.4-0.8
					l5.1,5.8c0,0,10.2,1.2,9.3-5.3s-0.6-11.4-4.8-12.6C1039.2,766.2,1037.2,765.9,1035.6,766.4z"/>
				<path id="Trazado_1804" class="st9" d="M1038.4,773.1c0,0,2.5,5.6,5.8,0.9"/>
				<path id="Trazado_1806" class="st7" d="M1115.7,765.7L1115.7,765.7c-0.4,5.3-1.4,13.7-1.4,13.7s-4.2,0.5-10.8,1.1
					c0-0.4,0-0.7,0-1.1c0.9-6.4,0.6-11.4,4.8-12.6C1112.2,765.7,1114.2,765.4,1115.7,765.7z"/>
				<path id="Trazado_1807" class="st5" d="M1116.8,766.4c0,0,11.5,2.1,5.3,12.1c-0.5,0.8-1.3,1.4-2.1,1.8c-0.7,0.3-1.4,0.3-1.4-0.8
					l-5.1,5.8c0,0-10.2,1.2-9.3-5.3s0.6-11.4,4.8-12.6C1113.2,766.2,1115.2,765.9,1116.8,766.4z"/>
				<path id="Trazado_1808" class="st9" d="M1114,773.1c0,0-2.5,5.6-5.8,0.9"/>
				<path id="Trazado_1809" class="st9" d="M1119.6,775.3c0,0-1.3,5.3-6.1,1.3"/>
				<path id="Trazado_1810" class="st7" d="M1064.4,782.2c-3.9-0.1-7.6-0.3-11.1-0.6l-3.4-11.6c-1.2-3.9,1.1-8,5-9.2
					c3.9-1.2,8,1.1,9.2,5c0.2,0.7,0.3,1.3,0.3,2C1064.4,772.3,1064.4,778,1064.4,782.2z"/>
				<path id="Trazado_1811" class="st5" d="M1049.2,769.9l4.1,13.7c0,0-6.9-0.2-5,4.2c0,0,1.7,1.7,2.3,1c0,0-0.9,2.8,2.7,2.8
					c0,0,3.9,2.1,5.4,0.6s4.7-3.8,5-4.7c0.2-0.6,0.1-12.1,0.1-20c0-4.1-3.3-7.3-7.4-7.3l0,0c-4.1-0.1-7.4,3.2-7.5,7.3
					C1048.9,768.4,1049,769.1,1049.2,769.9L1049.2,769.9z"/>
				<path id="Trazado_1812" class="st9" d="M1054.7,787.2c0,0-3,2.9-1.4,4.5"/>
				<path id="Trazado_1813" class="st9" d="M1053.4,785.4c0,0-2.8,0.9-2.8,3.5"/>
				<path id="Trazado_1814" class="st7" d="M1102.7,767.8c0,0.7-0.1,1.4-0.3,2.1l-3.3,11c-3.4,0.3-7.2,0.5-11.3,0.8
					c0-4.1,0-9.6,0.1-14c0-4.1,3.3-7.4,7.4-7.4S1102.7,763.6,1102.7,767.8L1102.7,767.8L1102.7,767.8z"/>
				<path id="Trazado_1815" class="st5" d="M1103,769.9l-4.1,13.7c0,0,6.9-0.2,5,4.2c0,0-1.7,1.7-2.3,1c0,0,0.9,2.8-2.7,2.8
					c0,0-3.9,2.1-5.4,0.6s-4.7-3.8-5-4.7c-0.2-0.6-0.1-12.1-0.1-20c0-4.1,3.3-7.3,7.4-7.3l0,0c4.1-0.1,7.4,3.2,7.5,7.3
					C1103.3,768.3,1103.2,769.1,1103,769.9L1103,769.9z"/>
				<path id="Trazado_1816" class="st9" d="M1097.5,787.2c0,0,3,2.9,1.4,4.5"/>
				<path id="Trazado_1817" class="st9" d="M1098.8,785.4c0,0,2.8,0.9,2.8,3.5"/>
				<path id="Trazado_1818" class="st7" d="M1073.3,704.6c0,0-14.1-0.5-14.5,10.5s22,6.3,22,6.3s9.4-1.3,7.8-7.9
					S1083.5,705.2,1073.3,704.6z"/>
				<path id="Trazado_1819" class="st7" d="M1073.3,703.4c0,0-14.1-0.5-14.5,10.5s22,6.3,22,6.3s9.4-1.3,7.8-7.9
					S1083.5,704,1073.3,703.4z"/>
				<path id="Trazado_1820" class="st8" d="M1073.3,704c0,0-14.1-0.5-14.5,10.5s22,6.3,22,6.3s9.4-1.3,7.8-7.9
					S1083.5,704.6,1073.3,704z"/>
				<path id="Trazado_1821" class="st7" d="M1041.8,759c0,0,4.7,1.7,5.7,4.9"/>
				<path id="Trazado_1822" class="st7" d="M1108.9,756.7c0,0-3.4,1.4-3.2,7.3"/>
				
					<ellipse id="Elipse_332" transform="matrix(0.866 -0.5 0.5 0.866 -250.6912 625.4742)" class="st6" cx="1041.8" cy="780.5" rx="2.2" ry="3.6"/>
				
					<ellipse id="Elipse_333" transform="matrix(0.4983 -0.867 0.867 0.4983 -115.1983 1356.0463)" class="st6" cx="1114.1" cy="777.6" rx="3.7" ry="2.2"/>
			</g>
			<g id="Mujer" transform="translate(-1100 360)">
				<path id="Trazado_1805" class="st9" d="M617.8,799.3c0,0,1.3,5.3,6.1,1.3"/>
				<path id="Trazado_1824" class="st10" d="M616,471l-16.5,43.1l-2.3-1.9l-9.2,14.3L616,530L616,471z"/>
				<path id="Trazado_1825" class="st7" d="M616,471l-16.6,43.1l-4.2-1.1l-7.4,13.5L616,530L616,471z"/>
				<path id="Trazado_1826" class="st10" d="M590.1,498.6H616l9.5-78.4h-35.5V498.6z"/>
				<path id="Trazado_1827" class="st7" d="M590.1,498.6H616l9.5-78.4h-35.5V498.6z"/>
				<path id="Trazado_1828" class="st11" d="M539.4,438.8l5.6-1l12.9-2.1c0,0,38.7-8.7,46.7-9.4c5-0.4,10.5-2.5,14-4
					c2.1-0.9,3.4-1.6,3.4-1.6L608,395.3l-21.6-16c0,0-13.7-2.9-19.5-10.9c-2.6-3.5-3.3-8-1.8-12.1c3.5-10.9-21.1,10.5-21.1,10.5
					s0.2,5.1,0,11.6c0,1.3-0.1,2.6-0.2,4c-0.1,0.9-0.1,1.8-0.2,2.7c-0.6,6.5-1.8,13.2-4.3,17.1C533.5,412,539.4,438.8,539.4,438.8z"
					/>
				<path id="Trazado_1829" class="st7" d="M544.1,378.9h0.5c1,0,1.8-2.1,2.7-2.2c7.7-0.7,14.7-2.4,19.6-7.8
					c-2.6-3.5-3.3-8-1.8-12.1c3.5-10.9-21,10.4-21,10.4S544.4,372.3,544.1,378.9z"/>
				<path id="Trazado_1830" class="st11" d="M514.2,347.9c0,16.5,13.5,30,30,30c1,0,1.9,0,2.9-0.1c16.5-1.6,28.5-16.3,26.9-32.7
					s-16.3-28.5-32.7-26.9C525.9,319.6,514.2,332.5,514.2,347.9L514.2,347.9z"/>
				<path id="Trazado_1831" class="st7" d="M514.2,347.9c0,16.5,13.5,30,30,30c1,0,1.9,0,2.9-0.1c0.5-0.2,1-0.6,1.4-1
					c0.7-1.1,0.9-2.4,0.5-3.6c-1.2-5.9-6.5-10-8.4-15.7c-1.7-5-0.4-10.7,2.2-15.3s6.4-8.4,10.2-12.2c0.6-0.7,1.4-1.3,2.3-1.7
					c3.2-1,8,1.8,10.5-1.1c-11.5-11.9-30.5-12.2-42.4-0.7C517.6,332.1,514.3,339.8,514.2,347.9L514.2,347.9z"/>
				<path id="Trazado_1832" class="st12" d="M554.2,327.7c-0.9,0.4-1.7,0.9-2.3,1.7c-3.8,3.7-7.6,7.5-10.1,12.2s-3.8,10.3-2.2,15.3
					c1.9,5.7,7.2,9.9,8.4,15.7c0.4,1.2,0.2,2.6-0.5,3.6c-1,1.3-2.9,1.3-4.2,2.3c-1.7,1.2-2,3.6-1.5,5.6c0.7,1.9,1.6,3.8,2.8,5.5
					c2.8,5,4,11.4,1,16.2c-1.4,2-3.1,3.7-5,5.2c-3.2,2.8-6.1,5.9-8.7,9.1c-2.3,2.7-4.2,5.7-5.8,8.9c-1.6,3.3-2.6,6.9-4.2,10.3
					c-3.7,7.8-11.1,14-19.6,15.4s-17.9-2.5-22.1-10.1c-3.2-5.7-3.2-12.6-2-19c0.9-4.5,2.4-9.1,1.9-13.7c-0.4-3.3-1.8-6.4-3-9.4
					c-5.9-15-7.8-31.8-3.2-47.3c0.7-2.7,1.9-5.3,3.5-7.7c1.7-2,3.5-4,5.5-5.7c6.2-6.1,10.8-13.6,15.7-20.9s10.1-14.5,17.2-19.4
					s16.6-7.5,24.7-4.5c8.6,3.1,13.8,11.1,19.8,17.5c2.4,2.6,7.1,6,5.7,10.1C563.8,330.5,557.9,326.5,554.2,327.7z"/>
				<path id="Trazado_1833" class="st7" d="M500.5,453.2c8.5-1.4,15.9-7.6,19.6-15.4c1.6-3.3,2.6-6.9,4.2-10.2
					c1.6-3.2,3.5-6.2,5.8-8.9c2.7-3.3,5.6-6.3,8.7-9.1c1.9-1.5,3.6-3.2,5-5.2c3-4.8,1.8-11.3-0.9-16.2c-1.1-1.7-2.1-3.6-2.8-5.5
					c-0.5-2-0.2-4.4,1.5-5.6c1.3-0.9,3.2-1,4.2-2.3c0.7-1.1,0.9-2.4,0.5-3.6c-1.2-5.9-6.5-10-8.4-15.7c-1.7-5-0.4-10.7,2.2-15.3
					s6.4-8.4,10.1-12.2c0.6-0.7,1.4-1.3,2.3-1.7c3.7-1.2,9.7,2.9,11.6-3c1.3-4.2-3.3-7.5-5.7-10.1c-5.1-5.5-9.8-12.2-16.4-16
					c7.8,3.4,12.9,10.9,18.5,17c2.4,2.6,7.1,5.9,5.7,10.1c-1.9,5.9-7.9,1.9-11.6,3c-0.9,0.4-1.7,0.9-2.3,1.7
					c-3.8,3.7-7.5,7.5-10.1,12.2s-3.8,10.3-2.2,15.3c1.9,5.7,7.2,9.9,8.4,15.7c0.4,1.2,0.2,2.6-0.5,3.6c-1,1.3-2.9,1.3-4.2,2.3
					c-1.7,1.2-2,3.6-1.5,5.6c0.7,1.9,1.6,3.8,2.8,5.5c2.8,5,4,11.4,0.9,16.2c-1.4,2-3.1,3.7-5,5.2c-3.2,2.8-6.1,5.9-8.7,9.1
					c-2.3,2.7-4.2,5.7-5.8,8.9c-1.6,3.3-2.6,6.9-4.2,10.3c-3.7,7.8-11.1,14-19.6,15.4c-5,0.8-10.2-0.1-14.6-2.7
					C491.9,453.3,496.3,453.8,500.5,453.2z"/>
				<path id="Trazado_1834" class="st11" d="M532.3,802.7l5.2,3.5l0.8,0.5l0.2,0.1l6.2,4.1l14.4,2.4l12.7-0.9c0,0,3.7-7.7-2.1-7.5
					c-1.8-0.1-3.6-0.6-5.3-1.5l-0.8-0.4l0,0c-0.8-0.4-1.7-0.9-2.5-1.5l0,0c-1.7-1.1-3.3-2.3-4.6-3.3c-1.9-1.5-3.2-2.6-3.2-2.6
					L532.3,802.7z"/>
				<path id="Trazado_1835" class="st7" d="M537.5,806.2l0.8,0.5l0.2,0.1l6.2,4.1l14.4,2.4l12.7-0.9c0,0,3.7-7.7-2.1-7.5
					c-1.8-0.1-3.6-0.6-5.3-1.5c0.9,0.5,1.6,1.4,2,2.4c0.2,2-9.4,5.5-9.4,5.5l-13.6-3.6c0,0-2.3-0.7-5.5-1.5l-0.3-0.1L537.5,806.2z"
					/>
				<path id="Trazado_1836" class="st13" d="M514.3,809.5c0,0,11.1,2.4,18.6,1.7s20.4,5.8,20.4,5.8s4.4,2,17.8,2.9
					s13.4-5.9,13.4-5.9c-1.5-9.3-22.7-12.3-23.4-12.4l0,0c0.3,0.1,1.3,0.7,2.5,1.5l0,0c1.5,1,3.1,2.3,3.3,3.3c0.2,2-9.4,5.5-9.4,5.5
					l-13.6-3.6c0,0-2.3-0.7-5.5-1.5l-0.3-0.1c-4.7-1.3-9.4-2.3-14.2-3c-5.8-0.6-8.8,4.4-9.5,5.5
					C514.4,809.3,514.4,809.4,514.3,809.5z"/>
				<path id="Trazado_1837" class="st11" d="M338.8,563.8l5.9,4.5c0,0,1.7-0.1,4.3-0.2h0.8c3.7-0.1,8.7-0.3,13-0.3
					c4,0,7.3,0.1,8.3,0.5c3,1,8.2-16.9,8.2-16.9l-5.9-1.4l-2-0.5l-1.4-0.3l-4.8-1.1l-14.6,1.7l-10.3,6.6L338.8,563.8z"/>
				<path id="Trazado_1838" class="st7" d="M338.8,563.8l5.9,4.5c0,0,1.7-0.1,4.3-0.2c-1.2-0.5-2.1-1.3-2.7-2.5
					c-3.8-10.6,15.1-15.1,15.1-15.1l8.8-0.4l1.7-0.1l1.4-0.1l-2-0.5l-1.4-0.3l-4.8-1.1l-14.6,1.7l-10.3,6.6L338.8,563.8z"/>
				<path id="Trazado_1839" class="st13" d="M327.2,568.6c3.6,3.3,27,0.1,28-0.1c-1.8,0.2-3.6,0.1-5.3-0.4c-3.3-0.9-4.1-2.9-4.1-2.9
					c-3.8-10.6,15.1-15.2,15.1-15.2l8.9-0.4l1.7-0.1l21.5-0.9l1-5.9c0,0-7,0.7-17.9,1.5c-6.2,0.5-13.6,1.1-21.8,1.6
					c-22.6,1.5-28,16.2-28,16.2S323.5,565.2,327.2,568.6z"/>
				<path id="Trazado_1840" class="st11" d="M590.1,312.1c0.1,0.3,0.3,0.6,0.5,0.9l5.2,7.7l13.6,1.4l0.2-5.4l2.3-81
					c0,0,9.4-54.3-8.3-51.2s-6.6,51.2-6.6,51.2s-2,24.4-3.5,31.7C592.1,274.5,585.9,303.2,590.1,312.1z"/>
				<path id="Trazado_1841" class="st11" d="M559.6,513.3l3.9,6.6l8.7,14.8c0,0,15.7,5.8,19.7,1.4c2.2-2.4,4.6-10.7,6.3-17.7
					c1.4-5.7,2.3-10.5,2.3-10.5L559.6,513.3z"/>
				<path id="Trazado_1842" class="st7" d="M559.6,513.3l3.9,6.6c0.2-0.2,0.5-0.4,0.7-0.7c4.4-5.6,23.6-1.2,33.9-0.8
					c1.4-5.7,2.3-10.5,2.3-10.5L559.6,513.3z"/>
				<path id="Trazado_1843" class="st7" d="M362.9,567.9c4,0,7.3,0.1,8.3,0.5c3,1,8.2-16.9,8.2-16.9l-7.9-1.9l21.5-0.9l1-5.9
					c0,0-7,0.7-17.9,1.5c-2.3,1.3-4.3,3-6,5l-0.3,0.4C365.2,555.3,363.5,562.5,362.9,567.9z"/>
				<path id="Trazado_1844" class="st7" d="M532.3,802.7l6,4c9-1.6,17.2-4.2,18.2-8.2c0-0.1,0-0.1,0-0.2c-1.9-1.5-3.2-2.6-3.2-2.6
					L532.3,802.7z"/>
				<path id="Trazado_1845" class="st7" d="M514.5,809.3c7.9-0.4,15.9-1.2,23.7-2.5c-4.7-1.3-9.4-2.3-14.2-3
					C518.1,803.1,515.1,808.1,514.5,809.3z"/>
				<path id="Trazado_1846" class="st14" d="M363.5,574.8c0,4.3,12,7.1,12,7.1l36.6,32.6c0,0,23,10.3,37.6,25.1s27.5,2.1,27.5,2.1
					c15.5-3.8,60.1-57.8,60.1-57.8s1,61.6,3.1,66.2s-0.7,16.9-1.9,22.1s-0.9,13.2-0.9,13.2s-16.7,63.9-15.3,69.5s-9.1,31.7-9.1,31.7
					v21.8c0,0,40.9-1.6,43.2-10.8s-10.3-13.2-10.3-13.2V782c8.2-4.2,9.8-32.9,9.8-32.9s12.2-35.5,13.9-41.4s0-14.8,0-14.8l1.2-7.7
					c0,0,2.6-5.2,2.6-6.3c0.4-2.7,1.4-5.2,3-7.3c1.9-2.3-2.1-7.7-2.1-7.7l3.5-9v-9.9l8.2-36c0,0,8.5-42,5.6-55.7s3.5-20.7,3.5-20.7
					c-14,7.3-21-9-23.3-16c-0.6-1.8-0.9-3-0.9-3s-19.2-7.1-37.1-5.4c-3.6,0.3-7.2,1.1-10.6,2.3c-19.8,7.1-23,36.7-23,36.7L482.8,574
					c-9,23.8-22.6,26.3-22.6,26.3s-31.9-21.4-32.7-22.5s-13.1-6.3-13.1-6.3c-1.4-2.5-3.6-4.5-6.3-5.8c-4.2-1.7-4.5-8.2-4.5-8.2
					c-0.5-15.2-9.4-16.4-9.4-16.4C363.4,538.6,363.5,570.4,363.5,574.8z"/>
				<rect id="Rect치ngulo_1193" x="540.8" y="431.3" class="st10" width="18.8" height="58.3"/>
				<rect id="Rect치ngulo_1194" x="539.1" y="428.9" class="st7" width="18.8" height="58.3"/>
				<path id="Trazado_1847" class="st7" d="M590.1,312c0,0,0,0.1,0,0.1c0.1,0.3,0.3,0.6,0.5,0.9l5.2,7.7l13.6,1.4l0.2-5.4
					C605.3,316.4,595.7,315.2,590.1,312z"/>
				<path id="Trazado_1848" class="st10" d="M590.6,313.1c0,0,0.7,30.6-7,34.8s-10.6,26-10.6,26s23.2,15.3,28.4,22
					s17.1,22.7,14.6,26.6s6,21.2,6,21.2s-15.3,31.4-11.8,43.2c3.5,11.8,3.8,43.2,3.8,43.2h6.6c0,0-2.1-25.8-2.1-36.2s7-47.7,7-47.7
					s3.1-36.6,0-37.6s-21.6-15.7-23-22.3s9.8-68.3,9.8-68.3S597.9,317.3,590.6,313.1z"/>
				<path id="Trazado_1849" class="st7" d="M540.5,425.9c0.6,4.3,2.2,8.3,4.5,11.9l12.9-2.1c0,0,38.7-8.7,46.7-9.4
					c5-0.4,10.5-2.5,14-4c-3.1-10.9-9-20.7-17.3-28.3l-4.9-4.5c-7.2-6.7-15.6-12.1-24.7-15.8c0.6,0.5,41.1,35.1,32.2,41.9
					s-32.8-9.8-32.8-9.8l-27.2-23.4l-1-0.9l-1.6,2.4c0.8,0.3,1.6,0.7,2.3,1.1c9.2,5.1,16.1,13.6,19.1,23.8
					C568.3,427.6,540.5,425.9,540.5,425.9z"/>
				<path id="Trazado_1850" class="st7" d="M532.1,513c0,0,25.8,14.3,32,6.3c1.4-1.8,4.2-2.5,7.8-2.7c-0.6-1.8-0.9-3-0.9-3
					s-19.2-7.1-37.1-5.4C532.8,511.1,532.1,513,532.1,513z"/>
				<path id="Trazado_1851" class="st15" d="M544,381.5l28.2,24.2c0,0,23.8,16.6,32.8,9.8s-32.2-41.9-32.2-41.9l0,0
					c9.1,3.8,17.5,9.1,24.7,15.8l4.9,4.5c12.9,12,15.8,12,16.2,29.5c0.1,4.3-1.4,10.5-2.5,11.7c-4.2,4.1-7.1,33.9-6.5,37.3
					s-7.8,33.5-5,41.9s-34.1-4.2-40.4,3.8s-32-6.3-32-6.3s14.3-36.6,17.8-39s7.7-21.3,0-30s-8.4-17-8.4-17s27.9,1.7,22.3-17.1
					c-3.2-11-11-20.1-21.4-24.9L544,381.5z"/>
				<path id="Trazado_1852" class="st7" d="M581.5,443.1c0,0-10.8,20.4-24.8,25.7c-0.4,0.2-0.9,0.3-1.3,0.5
					C540.8,473.7,582.6,449.4,581.5,443.1z"/>
				<path id="Trazado_1853" class="st11" d="M430.4,262.9c0,0,5.2,13.2,9.4,17.8s35.2,49.8,35.2,49.8l2.6,5.4l2.3,4.7l19.8-2.1
					l1.4-8l-0.8-0.9c-2-2.4-7.4-8.8-11.1-11.6c-4.5-3.5-13.6-15-13.6-15s-28.2-29.3-30.3-37.3s-30.3-56.1-36.6-47.7
					S430.4,262.9,430.4,262.9z"/>
				<path id="Trazado_1854" class="st7" d="M477.6,335.9l2.3,4.7l19.8-2.1l1.4-8l-0.8-0.9C498.2,330.6,482.3,338.2,477.6,335.9z"/>
				<path id="Trazado_1855" class="st7" d="M550.9,388.3c0,0-4.9-7.7-7.7-5.6s-3.9-6.3-5.4-4.9s-6.3,5.3-8.2-0.2
					c-1.5-4.3-18-31.6-24.7-42.6l-2.8-4.6c0,0-18.8,9.4-23.3,6.3v6.6l3.8,0.4l20.5,38.3c0,0,6.5,10.3,6,13.8s8.3,19.3,9.7,20.3
					s16.4,18.5,16.4,18.5s7.7,37.6,1,48.1s-18.1,18.1-18.1,18.1s-3.5,10.1-3,11.1s-4,5.6-1.9,7s4.9,11.2,4.9,11.2s9.8-15.7,15-18.1
					s12-34.5,12-34.5s1.9-18.9,2.1-31.1S546.7,388.3,550.9,388.3z"/>
				<path id="Trazado_1856" class="st10" d="M549.9,388.3c0,0-4.9-7.7-7.7-5.6s-3.9-6.3-5.4-4.9s-6.3,5.3-8.2-0.2
					c-1.5-4.3-18-31.6-24.7-42.6c-1.7-2.8-2.8-4.6-2.8-4.6s-18.8,9.4-23.3,6.3v6.6l3.8,0.4l20.5,38.3c0,0,6.5,10.3,6,13.8
					s8.3,19.3,9.7,20.3s16.4,18.5,16.4,18.5s7.7,37.6,1,48.1c-3.5,5.2-7.8,9.9-12.6,13.9c-4.1,3.4-6.9,8-8.2,13.2
					c-0.2,0.7-0.3,1.4-0.2,2.2c0.5,1-4,5.6-1.9,7s4.9,11.2,4.9,11.2s9.8-15.7,15-18.1s12-34.5,12-34.5s1.9-18.9,2.1-31.1
					S545.7,388.3,549.9,388.3z"/>
				<path id="Trazado_1857" class="st7" d="M502.2,546.7c0,0,14.6,2.8,20.5,7s-22.3-6.6-22.3-6.6L502.2,546.7z"/>
				<path id="Trazado_1858" class="st7" d="M537.3,583.8c0,0,15.3,12.7,12.5,24.2s-9.8,40.4-9.8,40.4L537.3,583.8z"/>
				<path id="Trazado_1859" class="st7" d="M403.9,559.4c0,0-21.5,2.3-20.1,5.1s20.1-2.6,20.1-2.6V559.4z"/>
				<path id="Trazado_1860" class="st7" d="M569,665.2c0,0,1.4,1.7-6.6,0s-2.1-7.1-2.1-7.1L569,665.2z"/>
				<path id="Trazado_1861" class="st7" d="M566.2,689.2c0,0-11,1.7-16.8,0S566.2,689.2,566.2,689.2z"/>
				<path id="Trazado_1862" class="st7" d="M543.8,783.2c0,0-1.9-2.1-11.5,1.8s-13.4,4-16.2,2.8S543.8,783.2,543.8,783.2z"/>
				<path id="Trazado_1863" class="st7" d="M554.4,556.4l-13.6,18.9C540.8,575.3,548.1,558.8,554.4,556.4z"/>
				<path id="Trazado_1864" class="st7" d="M527.9,382.7c0,0-0.6,6.3-9.3,8.7s-10.4,4.4-10.4,4.4"/>
				<path id="Trazado_1865" class="st7" d="M505.2,337.3c0,0-11.5,8.2-23.6,6.5"/>
				<path id="Trazado_1866" class="st7" d="M514,512.8c0,0,3.4,2.1,11.5-7.2"/>
				<path id="Trazado_1867" class="st7" d="M598.2,414.6c0.3-1.7-0.8-3.3-2-4.6l-2.3-2.7c-0.4-0.6-0.9-1.1-1.5-1.5
					c-1.3-1-3.1-1.4-4.5-2.3"/>
			</g>
		</g>
	</g>
</g>
</svg>
